<svg xmlns="http://www.w3.org/2000/svg" xmlns:xlink="http://www.w3.org/1999/xlink" width="500" zoomAndPan="magnify" viewBox="0 0 375 93.749996" height="125" preserveAspectRatio="xMidYMid meet" version="1.0"><defs><g/></defs><g fill="#ffffff" fill-opacity="1"><g transform="translate(8.324455, 72.306038)"><g><path d="M 33.921875 -53.140625 L 46.421875 -53.140625 L 46.421875 0 L 33.921875 0 L 33.921875 -21.34375 L 16.40625 -21.34375 L 16.40625 0 L 4.6875 0 L 4.6875 -53.140625 L 16.40625 -53.140625 L 16.40625 -31.96875 L 33.921875 -31.96875 Z M 33.921875 -53.140625 "/></g></g></g><g fill="#ffffff" fill-opacity="1"><g transform="translate(56.393473, 72.306038)"><g><path d="M 18.671875 19.53125 L 6.484375 19.53125 L 14.296875 0 L 12.34375 0 L -0.78125 -34.46875 L 11.015625 -34.46875 L 19.21875 -9.84375 L 27.4375 -34.46875 L 39.3125 -34.46875 L 26.1875 0 Z M 18.671875 19.53125 "/></g></g></g><g fill="#ffffff" fill-opacity="1"><g transform="translate(91.87849, 72.306038)"><g><path d="M 16.40625 -17.1875 C 16.40625 -15.675781 16.769531 -14.269531 17.5 -12.96875 C 18.226562 -11.664062 19.207031 -10.609375 20.4375 -9.796875 C 21.664062 -8.992188 23.0625 -8.59375 24.625 -8.59375 C 26.1875 -8.59375 27.578125 -8.992188 28.796875 -9.796875 C 30.023438 -10.609375 31.003906 -11.664062 31.734375 -12.96875 C 32.460938 -14.269531 32.828125 -15.675781 32.828125 -17.1875 C 32.828125 -18.695312 32.460938 -20.101562 31.734375 -21.40625 C 31.003906 -22.71875 30.023438 -23.773438 28.796875 -24.578125 C 27.578125 -25.390625 26.1875 -25.796875 24.625 -25.796875 C 23.0625 -25.796875 21.664062 -25.390625 20.4375 -24.578125 C 19.207031 -23.773438 18.226562 -22.71875 17.5 -21.40625 C 16.769531 -20.101562 16.40625 -18.695312 16.40625 -17.1875 Z M 16.40625 19.53125 L 4.6875 19.53125 L 4.6875 -34.46875 L 16.40625 -34.46875 L 16.40625 -30.25 C 17.914062 -32.125 19.703125 -33.425781 21.765625 -34.15625 C 23.828125 -34.882812 25.976562 -35.25 28.21875 -35.25 C 31.5 -35.25 34.425781 -34.398438 37 -32.703125 C 39.582031 -31.015625 41.613281 -28.800781 43.09375 -26.0625 C 44.582031 -23.332031 45.328125 -20.375 45.328125 -17.1875 C 45.328125 -14.007812 44.582031 -11.050781 43.09375 -8.3125 C 41.613281 -5.582031 39.582031 -3.382812 37 -1.71875 C 34.425781 -0.0507812 31.5 0.78125 28.21875 0.78125 C 25.976562 0.78125 23.75 0.40625 21.53125 -0.34375 C 19.3125 -1.101562 17.601562 -2.367188 16.40625 -4.140625 Z M 16.40625 19.53125 "/></g></g></g><g fill="#ffffff" fill-opacity="1"><g transform="translate(136.899205, 72.306038)"><g><path d="M 15.3125 -21.34375 L 30.71875 -21.34375 C 30.71875 -21.34375 30.648438 -21.664062 30.515625 -22.3125 C 30.390625 -22.96875 30.078125 -23.710938 29.578125 -24.546875 C 29.085938 -25.378906 28.320312 -26.117188 27.28125 -26.765625 C 26.238281 -27.421875 24.832031 -27.75 23.0625 -27.75 C 21.238281 -27.75 19.800781 -27.421875 18.75 -26.765625 C 17.707031 -26.117188 16.9375 -25.378906 16.4375 -24.546875 C 15.945312 -23.710938 15.632812 -22.96875 15.5 -22.3125 C 15.375 -21.664062 15.3125 -21.34375 15.3125 -21.34375 Z M 41.96875 -17.96875 C 41.96875 -17.601562 41.953125 -17.238281 41.921875 -16.875 C 41.898438 -16.507812 41.890625 -16.144531 41.890625 -15.78125 L 15.15625 -15.78125 C 15.15625 -14.476562 15.453125 -13.1875 16.046875 -11.90625 C 16.648438 -10.632812 17.515625 -9.59375 18.640625 -8.78125 C 19.765625 -7.976562 21.082031 -7.578125 22.59375 -7.578125 C 24.675781 -7.578125 26.316406 -8.132812 27.515625 -9.25 C 28.710938 -10.375 29.335938 -11.5625 29.390625 -12.8125 L 41.34375 -12.8125 C 40.351562 -8.28125 38.164062 -4.878906 34.78125 -2.609375 C 31.394531 -0.347656 27.410156 0.78125 22.828125 0.78125 C 18.859375 0.78125 15.363281 0.0390625 12.34375 -1.4375 C 9.320312 -2.925781 6.960938 -5.007812 5.265625 -7.6875 C 3.578125 -10.375 2.734375 -13.539062 2.734375 -17.1875 C 2.734375 -20.789062 3.601562 -23.945312 5.34375 -26.65625 C 7.09375 -29.363281 9.476562 -31.472656 12.5 -32.984375 C 15.519531 -34.492188 18.960938 -35.25 22.828125 -35.25 C 26.316406 -35.25 29.503906 -34.570312 32.390625 -33.21875 C 35.285156 -31.863281 37.601562 -29.910156 39.34375 -27.359375 C 41.09375 -24.804688 41.96875 -21.675781 41.96875 -17.96875 Z M 41.96875 -17.96875 "/></g></g></g><g fill="#ffffff" fill-opacity="1"><g transform="translate(178.558974, 72.306038)"><g><path d="M 24.15625 -25.796875 C 22.695312 -25.796875 21.378906 -25.363281 20.203125 -24.5 C 19.023438 -23.644531 18.097656 -22.5625 17.421875 -21.25 C 16.742188 -19.945312 16.40625 -18.59375 16.40625 -17.1875 L 16.40625 0 L 4.6875 0 L 4.6875 -34.46875 L 16.40625 -34.46875 L 16.40625 -30.25 C 17.289062 -31.550781 18.488281 -32.707031 20 -33.71875 C 21.519531 -34.738281 23.347656 -35.25 25.484375 -35.25 C 26.003906 -35.25 26.601562 -35.179688 27.28125 -35.046875 C 27.957031 -34.921875 28.53125 -34.726562 29 -34.46875 L 29 -23.84375 L 28.84375 -23.84375 C 28.269531 -24.570312 27.566406 -25.078125 26.734375 -25.359375 C 25.898438 -25.648438 25.039062 -25.796875 24.15625 -25.796875 Z M 24.15625 -25.796875 "/></g></g></g><g fill="#ffffff" fill-opacity="1"><g transform="translate(205.289912, 72.306038)"><g><path d="M 35.484375 -10.625 L 35.484375 0 L 4.6875 0 L 4.6875 -53.140625 L 35.484375 -53.140625 L 35.484375 -42.515625 L 16.40625 -42.515625 L 16.40625 -31.96875 L 34.703125 -31.96875 L 34.703125 -21.34375 L 16.40625 -21.34375 L 16.40625 -10.625 Z M 35.484375 -10.625 "/></g></g></g><g fill="#ffffff" fill-opacity="1"><g transform="translate(242.416318, 72.306038)"><g><path d="M 22.28125 -26.109375 C 20.507812 -26.109375 19.113281 -25.625 18.09375 -24.65625 C 17.070312 -23.695312 16.335938 -22.523438 15.890625 -21.140625 C 15.453125 -19.753906 15.234375 -18.410156 15.234375 -17.109375 C 15.234375 -15.804688 15.441406 -14.453125 15.859375 -13.046875 C 16.273438 -11.640625 16.988281 -10.46875 18 -9.53125 C 19.019531 -8.59375 20.445312 -8.125 22.28125 -8.125 C 24.101562 -8.125 25.640625 -8.515625 26.890625 -9.296875 C 28.140625 -10.078125 28.867188 -11.25 29.078125 -12.8125 L 40.484375 -12.8125 C 40.117188 -10.257812 39.128906 -7.953125 37.515625 -5.890625 C 35.898438 -3.835938 33.765625 -2.210938 31.109375 -1.015625 C 28.453125 0.179688 25.378906 0.78125 21.890625 0.78125 C 17.921875 0.78125 14.503906 -0.0351562 11.640625 -1.671875 C 8.773438 -3.316406 6.570312 -5.492188 5.03125 -8.203125 C 3.5 -10.910156 2.734375 -13.90625 2.734375 -17.1875 C 2.734375 -20.476562 3.523438 -23.488281 5.109375 -26.21875 C 6.703125 -28.957031 8.941406 -31.144531 11.828125 -32.78125 C 14.722656 -34.425781 18.078125 -35.25 21.890625 -35.25 C 25.640625 -35.25 28.878906 -34.582031 31.609375 -33.25 C 34.347656 -31.925781 36.507812 -30.15625 38.09375 -27.9375 C 39.6875 -25.726562 40.5625 -23.296875 40.71875 -20.640625 L 29.078125 -20.640625 C 29.023438 -22.304688 28.382812 -23.632812 27.15625 -24.625 C 25.9375 -25.613281 24.3125 -26.109375 22.28125 -26.109375 Z M 22.28125 -26.109375 "/></g></g></g><g fill="#ffffff" fill-opacity="1"><g transform="translate(282.512875, 72.306038)"><g><path d="M 39.9375 -19.53125 L 39.9375 0 L 28.21875 0 L 28.21875 -19.53125 C 28.21875 -21.570312 27.800781 -23.125 26.96875 -24.1875 C 26.132812 -25.257812 24.804688 -25.796875 22.984375 -25.796875 C 21.160156 -25.796875 19.609375 -24.945312 18.328125 -23.25 C 17.046875 -21.5625 16.40625 -19.539062 16.40625 -17.1875 L 16.40625 0 L 4.6875 0 L 4.6875 -58.609375 L 16.40625 -58.609375 L 16.40625 -30.25 C 17.601562 -31.757812 19.101562 -32.96875 20.90625 -33.875 C 22.707031 -34.789062 24.726562 -35.25 26.96875 -35.25 C 31.601562 -35.25 34.921875 -33.800781 36.921875 -30.90625 C 38.929688 -28.019531 39.9375 -24.226562 39.9375 -19.53125 Z M 39.9375 -19.53125 "/></g></g></g><g fill="#ffffff" fill-opacity="1"><g transform="translate(322.922079, 72.306038)"><g><path d="M 22.4375 -8.125 C 24.519531 -8.125 26.132812 -8.566406 27.28125 -9.453125 C 28.425781 -10.335938 29.234375 -11.46875 29.703125 -12.84375 C 30.171875 -14.226562 30.40625 -15.648438 30.40625 -17.109375 C 30.40625 -18.566406 30.15625 -19.972656 29.65625 -21.328125 C 29.164062 -22.691406 28.347656 -23.816406 27.203125 -24.703125 C 26.054688 -25.585938 24.46875 -26.03125 22.4375 -26.03125 C 20.394531 -26.03125 18.785156 -25.585938 17.609375 -24.703125 C 16.441406 -23.816406 15.609375 -22.691406 15.109375 -21.328125 C 14.617188 -19.972656 14.375 -18.566406 14.375 -17.109375 C 14.375 -15.648438 14.609375 -14.226562 15.078125 -12.84375 C 15.546875 -11.46875 16.363281 -10.335938 17.53125 -9.453125 C 18.707031 -8.566406 20.34375 -8.125 22.4375 -8.125 Z M 22.4375 -35.171875 C 26.03125 -35.171875 29.3125 -34.414062 32.28125 -32.90625 C 35.25 -31.394531 37.617188 -29.296875 39.390625 -26.609375 C 41.160156 -23.929688 42.046875 -20.789062 42.046875 -17.1875 C 42.046875 -13.539062 41.171875 -10.375 39.421875 -7.6875 C 37.679688 -5.007812 35.328125 -2.941406 32.359375 -1.484375 C 29.390625 -0.0234375 26.082031 0.703125 22.4375 0.703125 C 18.78125 0.703125 15.453125 -0.0234375 12.453125 -1.484375 C 9.460938 -2.941406 7.09375 -5.007812 5.34375 -7.6875 C 3.601562 -10.375 2.734375 -13.539062 2.734375 -17.1875 C 2.734375 -20.789062 3.617188 -23.929688 5.390625 -26.609375 C 7.160156 -29.296875 9.539062 -31.394531 12.53125 -32.90625 C 15.53125 -34.414062 18.832031 -35.171875 22.4375 -35.171875 Z M 22.4375 -35.171875 "/></g></g></g><g fill="#ffffff" fill-opacity="1"><g transform="translate(364.66812, 72.306038)"><g/></g></g></svg>